<svg width="118" height="119" viewBox="0 0 118 119" fill="none" xmlns="http://www.w3.org/2000/svg">
<rect y="0.5" width="118" height="118" rx="10" fill="#D8F794"/>
<g clip-path="url(#clip0_628_857)">
<path d="M24.7666 21.2731H78.0143V92.6258H24.7666V21.2731Z" fill="white"/>
<path d="M78.0234 21.2731H24.7666V41.6596C24.7666 69.8124 42.364 92.6258 64.0713 92.6258H78.0143V21.2731H78.0234Z" fill="#EDFBCC"/>
<path d="M29.8428 64.6012H57.7379V87.5337H29.8428V64.6012Z" fill="white"/>
<path d="M29.8428 66.6985C33.3422 75.2066 39.293 82.46 46.9298 87.5337H57.7379V64.6012H29.8428V66.6985Z" fill="#F8F7FE"/>
<path d="M51.3952 59.5001C60.5 59.5001 67.8808 52.0825 67.8808 42.9326C67.8808 33.7826 60.5 26.3651 51.3952 26.3651C42.2905 26.3651 34.9097 33.7826 34.9097 42.9326C34.9097 52.0825 42.2905 59.5001 51.3952 59.5001Z" fill="white"/>
<path d="M51.395 26.3743C46.875 26.3743 42.5462 28.2426 39.4478 31.5487C38.9648 33.1789 38.7188 34.8641 38.7188 36.5675C38.7188 47.1271 47.8045 55.681 59.0045 55.681C60.0798 55.681 61.1551 55.5894 62.2123 55.4246C69.0835 49.435 69.8126 38.9762 63.8526 32.0708C60.7177 28.4441 56.1703 26.3651 51.395 26.3651V26.3743Z" fill="#EDFBCC"/>
<path d="M55.0142 35.5356L44.0273 46.5771C43.2871 47.321 43.2871 48.5271 44.0273 49.2711L45.0777 50.3266C45.818 51.0706 47.0181 51.0706 47.7584 50.3266L58.7453 39.2852C59.4855 38.5412 59.4855 37.3351 58.7453 36.5912L57.6949 35.5356C56.9547 34.7917 55.7545 34.7917 55.0142 35.5356Z" fill="#EDFBCC"/>
<path d="M45.0525 39.1135C46.4517 39.1135 47.5859 37.9736 47.5859 36.5675C47.5859 35.1614 46.4517 34.0215 45.0525 34.0215C43.6533 34.0215 42.519 35.1614 42.519 36.5675C42.519 37.9736 43.6533 39.1135 45.0525 39.1135Z" fill="#EDFBCC"/>
<path d="M57.738 51.8528C59.1372 51.8528 60.2715 50.7129 60.2715 49.3068C60.2715 47.9006 59.1372 46.7607 57.738 46.7607C56.3388 46.7607 55.2046 47.9006 55.2046 49.3068C55.2046 50.7129 56.3388 51.8528 57.738 51.8528Z" fill="#EDFBCC"/>
<path d="M90.5084 54.408H60.4717C58.9618 54.408 57.7378 55.6381 57.7378 57.1555V94.9795C57.7378 96.4969 58.9618 97.727 60.4717 97.727H90.5084C92.0183 97.727 93.2423 96.4969 93.2423 94.9795V57.1555C93.2423 55.6381 92.0183 54.408 90.5084 54.408Z" fill="white"/>
<path d="M93.2332 93.908V58.227C93.2332 56.1114 91.5291 54.408 89.4331 54.408H61.5379C59.4328 54.408 57.7378 56.1206 57.7378 58.227V67.7792C57.7378 84.3192 69.0927 97.727 83.0995 97.727H89.4422C91.5473 97.727 93.2423 96.0144 93.2423 93.908H93.2332Z" fill="#EDFBCC"/>
<path d="M62.8047 59.5H88.1664V67.1472H62.8047V59.5Z" fill="white"/>
<path d="M62.8047 72.2393H67.8807V77.3405H62.8047V72.2393Z" fill="#C7E2FB"/>
<path d="M83.0903 72.2393H88.1663V87.5337H83.0903V72.2393Z" fill="white"/>
<path d="M88.1664 59.5H62.8047C62.8047 63.722 71.0338 67.1472 81.1858 67.1472H88.1573V59.5H88.1664Z" fill="#EDFBCC"/>
<path d="M62.8594 72.2393C62.9778 74.9776 65.1468 77.1848 67.8716 77.3405V72.2393H62.8594Z" fill="#EBF7FE"/>
<path d="M72.9478 72.2393H78.0237V77.3405H72.9478V72.2393Z" fill="#C7E2FB"/>
<path d="M73.0024 72.2393C73.1209 74.9776 75.2898 77.1848 78.0146 77.3405V72.2393H73.0024Z" fill="#EBF7FE"/>
<path d="M62.8047 82.4325H67.8807V87.5337H62.8047V82.4325Z" fill="#C7E2FB"/>
<path d="M62.8594 82.4325C62.9778 85.1708 65.1468 87.378 67.8716 87.5337V82.4325H62.8594Z" fill="#EBF7FE"/>
<path d="M72.9478 82.4325H78.0237V87.5337H72.9478V82.4325Z" fill="#C7E2FB"/>
<path d="M73.0024 82.4325C73.1209 85.1708 75.2898 87.378 78.0146 87.5337V82.4325H73.0024Z" fill="#EBF7FE"/>
<path d="M88.1663 87.433V72.2393H83.0903C83.0903 80.1063 85.3048 86.5812 88.1663 87.433Z" fill="#EDFBCC"/>
<path d="M89.4331 53.1258H79.2903V21.273C79.2903 20.5678 78.7253 20 78.0236 20H24.7667C24.065 20 23.5 20.5678 23.5 21.273V92.6258C23.5 93.331 24.065 93.8988 24.7667 93.8988H56.462C56.462 96.7104 58.7312 99 61.538 99H89.4331C92.2308 99 94.5091 96.7196 94.5091 93.8988V58.2178C94.5091 55.4062 92.24 53.1166 89.4331 53.1166V53.1258ZM91.9666 58.227V91.3528H59.0046V58.227C59.0046 56.8166 60.1437 55.681 61.538 55.681H89.4331C90.8365 55.681 91.9666 56.8258 91.9666 58.227ZM61.538 53.1258C59.0957 53.1258 56.9997 54.8842 56.5622 57.302C48.643 60.1869 39.9035 56.0748 37.0329 48.1162C34.1623 40.1575 38.2541 31.3747 46.1733 28.4898C54.0926 25.6049 62.8321 29.717 65.7027 37.6756C67.6164 42.9875 66.4682 48.9221 62.7227 53.1258H61.5471H61.538ZM56.462 74.7945H33.6429V77.3405H56.462V86.2607H31.1094V65.8742H56.4711V74.7945H56.462ZM26.0334 91.3528V22.546H76.7477V53.1258H65.9396C71.5168 45.0573 69.521 33.9665 61.4924 28.3707C53.4638 22.7658 42.4279 24.7715 36.8598 32.84C31.2826 40.9085 33.2783 51.9993 41.307 57.5951C45.7268 60.6814 51.3131 61.5789 56.4711 60.022V63.319H29.8427C29.141 63.319 28.576 63.8868 28.576 64.592V87.5246C28.576 88.2298 29.141 88.7976 29.8427 88.7976H56.4711V91.3436H26.0334V91.3528ZM89.4331 96.454H61.538C60.1346 96.454 59.0046 95.3092 59.0046 93.9079H91.9666C91.9666 95.3183 90.8274 96.454 89.4331 96.454Z" fill="#699F2F"/>
<path d="M61.5381 67.1473C61.5381 67.8525 62.1031 68.4203 62.8048 68.4203H88.1665C88.8682 68.4203 89.4332 67.8525 89.4332 67.1473V59.5001C89.4332 58.7949 88.8682 58.2271 88.1665 58.2271H62.8048C62.1031 58.2271 61.5381 58.7949 61.5381 59.5001V67.1473ZM64.0715 60.7731H86.8907V65.8743H64.0715V60.7731Z" fill="#699F2F"/>
<path d="M67.8808 70.9663H62.8048C62.1031 70.9663 61.5381 71.5341 61.5381 72.2393V77.3405C61.5381 78.0457 62.1031 78.6135 62.8048 78.6135H67.8808C68.5825 78.6135 69.1475 78.0457 69.1475 77.3405V72.2393C69.1475 71.5341 68.5825 70.9663 67.8808 70.9663ZM66.605 76.0675H64.0715V73.5215H66.605V76.0675Z" fill="#699F2F"/>
<path d="M78.0234 70.9663H72.9474C72.2457 70.9663 71.6807 71.5341 71.6807 72.2393V77.3405C71.6807 78.0457 72.2457 78.6135 72.9474 78.6135H78.0234C78.7251 78.6135 79.2901 78.0457 79.2901 77.3405V72.2393C79.2901 71.5341 78.7251 70.9663 78.0234 70.9663ZM76.7475 76.0675H74.2141V73.5215H76.7475V76.0675Z" fill="#699F2F"/>
<path d="M88.1664 70.9663H83.0904C82.3887 70.9663 81.8237 71.5341 81.8237 72.2393V87.5338C81.8237 88.239 82.3887 88.8068 83.0904 88.8068H88.1664C88.8681 88.8068 89.4331 88.239 89.4331 87.5338V72.2393C89.4331 71.5341 88.8681 70.9663 88.1664 70.9663ZM86.8997 86.2608H84.3663V73.5215H86.8997V86.2608Z" fill="#699F2F"/>
<path d="M67.8808 81.1595H62.8048C62.1031 81.1595 61.5381 81.7274 61.5381 82.4326V87.5338C61.5381 88.239 62.1031 88.8068 62.8048 88.8068H67.8808C68.5825 88.8068 69.1475 88.239 69.1475 87.5338V82.4326C69.1475 81.7274 68.5825 81.1595 67.8808 81.1595ZM66.605 86.2608H64.0715V83.7147H66.605V86.2608Z" fill="#699F2F"/>
<path d="M78.0234 81.1595H72.9474C72.2457 81.1595 71.6807 81.7274 71.6807 82.4326V87.5338C71.6807 88.239 72.2457 88.8068 72.9474 88.8068H78.0234C78.7251 88.8068 79.2901 88.239 79.2901 87.5338V82.4326C79.2901 81.7274 78.7251 81.1595 78.0234 81.1595ZM76.7475 86.2608H74.2141V83.7147H76.7475V86.2608Z" fill="#699F2F"/>
<path d="M59.132 35.1662C57.6101 33.6368 55.1405 33.6368 53.6095 35.1662L43.658 45.158C42.1361 46.6875 42.1361 49.1785 43.658 50.708C45.1799 52.2374 47.6587 52.2374 49.1805 50.708L59.1229 40.7162C60.6448 39.1868 60.6448 36.6957 59.1229 35.1662H59.132ZM57.3367 38.912L47.3944 48.9038C46.8567 49.4441 45.991 49.4441 45.4624 48.9038C44.9338 48.3634 44.9247 47.4934 45.4624 46.9622L55.4048 36.9704C55.9424 36.4301 56.8082 36.4301 57.3367 36.9704C57.8744 37.5108 57.8744 38.3808 57.3367 38.912Z" fill="#699F2F"/>
<path d="M48.8615 36.5674C48.8615 34.4519 47.1574 32.7484 45.0614 32.7484C42.9654 32.7484 41.2612 34.461 41.2612 36.5674C41.2612 38.6739 42.9654 40.3865 45.0614 40.3865C47.1574 40.3865 48.8615 38.6739 48.8615 36.5674ZM43.7856 36.5674C43.7856 35.8623 44.3506 35.2944 45.0523 35.2944C45.754 35.2944 46.319 35.8623 46.319 36.5674C46.319 37.2726 45.754 37.8405 45.0523 37.8405C44.3506 37.8405 43.7856 37.2726 43.7856 36.5674Z" fill="#699F2F"/>
<path d="M57.7377 45.4877C55.6325 45.4877 53.9375 47.2003 53.9375 49.3067C53.9375 51.4131 55.6416 53.1257 57.7377 53.1257C59.8337 53.1257 61.5378 51.4131 61.5378 49.3067C61.5378 47.2003 59.8337 45.4877 57.7377 45.4877ZM57.7377 50.5797C57.0359 50.5797 56.4709 50.0119 56.4709 49.3067C56.4709 48.6015 57.0359 48.0337 57.7377 48.0337C58.4394 48.0337 59.0044 48.6015 59.0044 49.3067C59.0044 50.0119 58.4394 50.5797 57.7377 50.5797Z" fill="#699F2F"/>
<path d="M33.6431 69.6932H46.3194V72.2393H33.6431V69.6932Z" fill="#699F2F"/>
<path d="M33.6431 79.8865H48.8619V82.4325H33.6431V79.8865Z" fill="#699F2F"/>
<path d="M51.395 79.8865H53.9285V82.4325H51.395V79.8865Z" fill="#699F2F"/>
</g>
<defs>
<clipPath id="clip0_628_857">
<rect width="71" height="79" fill="white" transform="translate(23.5 20)"/>
</clipPath>
</defs>
</svg>
