<svg width="118" height="119" viewBox="0 0 118 119" fill="none" xmlns="http://www.w3.org/2000/svg">
<rect y="0.5" width="118" height="118" rx="10" fill="#D8F794"/>
<g clip-path="url(#clip0_628_750)">
<path d="M59.0001 72.3936C59.0001 71.1017 57.9478 70.0493 56.6558 70.0493H47.2787C45.9868 70.0493 44.9344 71.1017 44.9344 72.3936V79.4264C44.9344 80.7184 45.9868 81.7707 47.2787 81.7707H56.6558C57.9478 81.7707 59.0001 80.7184 59.0001 79.4264V78.2543H64.8608C64.8608 80.8467 66.957 82.9429 69.5494 82.9429H75.5299C75.8807 82.9429 76.2315 82.9172 76.5823 82.8744V85.2871C76.5823 85.9288 76.0518 86.4593 75.4101 86.4593H28.533C27.8913 86.4593 27.3608 85.9288 27.3608 85.2871V29.0329C27.3608 28.3912 27.8913 27.8607 28.533 27.8607H75.4101C76.0518 27.8607 76.5823 28.3912 76.5823 29.0329V60.2016L75.8892 59.9877C74.7855 59.6626 73.6647 59.4915 72.5183 59.4915H68.3773C67.7356 59.4915 67.1452 59.7481 66.726 60.1845C66.572 60.3214 66.4522 60.4925 66.3495 60.6636H66.033C66.033 53.1174 60.968 46.846 54.3116 45.6396V43.6718C54.3116 42.6964 53.5244 41.9179 52.5576 41.9179H51.3855C50.4101 41.9179 49.6315 42.705 49.6315 43.6718V45.6396C42.9751 46.846 37.9101 53.1174 37.9101 60.6636C37.2684 60.6636 36.6781 60.9203 36.2589 61.3566C35.8225 61.7758 35.5658 62.3662 35.5658 63.0079C35.5658 64.2998 36.6182 65.3522 37.9101 65.3522H62.8331C62.6363 65.6944 62.5166 66.1051 62.5166 66.5243C62.5166 67.8162 63.5689 68.8686 64.8608 68.8686H63.6887C63.047 68.8686 62.4567 69.1253 62.0374 69.5616C61.6011 69.9808 61.3444 70.5712 61.3444 71.2129C61.3444 72.5048 62.3968 73.5572 63.6887 73.5572H59.0001V72.385V72.3936Z" fill="white"/>
<path d="M73.0915 84.1064H30.843C30.2099 84.1064 29.7051 83.593 29.7051 82.9599V31.3514C29.7051 30.7183 30.2184 30.205 30.843 30.205H73.0915C73.7246 30.205 74.2379 30.7183 74.2379 31.3514V82.9685C74.2379 83.6016 73.7246 84.1149 73.1 84.1149L73.0915 84.1064Z" fill="#EDFBCC"/>
<path d="M61.3445 78.2544V81.7708C61.3445 83.0627 60.2922 84.1151 59.0002 84.1151H49.6231C48.3312 84.1151 47.2788 83.0627 47.2788 81.7708H56.6559C57.9479 81.7708 59.0002 80.7185 59.0002 79.4265V78.2544H61.3445Z" fill="white"/>
<path d="M61.0277 73.5658H59V72.3937C59.8641 72.3937 60.617 72.8642 61.0277 73.5658Z" fill="#02AF9E"/>
<path d="M62.5166 66.5329C62.5166 66.9521 62.6364 67.3628 62.8332 67.705H40.2544C38.9625 67.705 37.9102 66.6526 37.9102 65.3607H62.8332C62.6364 65.7029 62.5166 66.1136 62.5166 66.5329Z" fill="white"/>
<path d="M56.6558 46.0247V46.307C55.9029 46.0247 55.1243 45.8022 54.3115 45.6482V44.2622H54.8933C55.8687 44.2622 56.6473 45.0493 56.6473 46.0161L56.6558 46.0247Z" fill="#02AF9E"/>
<path d="M58.9998 79.4265C58.9998 80.7184 57.9474 81.7707 56.6555 81.7707H47.2784C45.9864 81.7707 44.9341 80.7184 44.9341 79.4265V72.3936C44.9341 71.1017 45.9864 70.0493 47.2784 70.0493H56.6555C57.9474 70.0493 58.9998 71.1017 58.9998 72.3936V73.5657H51.9669C51.3253 73.5657 50.7349 73.8224 50.3157 74.2588C49.8793 74.678 49.6227 75.2683 49.6227 75.91C49.6227 77.2019 50.675 78.2543 51.9669 78.2543H58.9998V79.4265Z" fill="#8AC926"/>
<path d="M58.9998 72.3936V73.5657H56.6555C56.6555 72.9241 56.1251 72.3936 55.4834 72.3936V70.0493H56.6555C57.9475 70.0493 58.9998 71.1017 58.9998 72.3936Z" fill="#83B720"/>
<path d="M58.9998 78.2543V79.4264C58.9998 80.7183 57.9474 81.7707 56.6555 81.7707H47.2784C45.9864 81.7707 44.9341 80.7183 44.9341 79.4264V78.2543H47.2784C47.2784 78.896 47.8088 79.4264 48.4505 79.4264H55.4834C56.125 79.4264 56.6555 78.896 56.6555 78.2543H58.9998Z" fill="#83B720"/>
<path d="M56.6559 73.5657V78.2543H47.2788V73.5657C47.2788 72.924 47.8093 72.3936 48.451 72.3936H55.4838V73.5657H56.6559Z" fill="#ACDB52"/>
<path d="M76.5823 82.8659C76.2315 82.9086 75.8807 82.9343 75.53 82.9343H69.5495C66.9571 82.9343 64.8609 80.8381 64.8609 78.2457H51.9673C50.6754 78.2457 49.623 77.1934 49.623 75.9014C49.623 75.2598 49.8797 74.6694 50.3161 74.2502C50.7353 73.8138 51.3256 73.5572 51.9673 73.5572H63.6888C62.3968 73.5572 61.3445 72.5048 61.3445 71.2129C61.3445 70.5712 61.6011 69.9808 62.0375 69.5616C62.4567 69.1253 63.0471 68.8686 63.6888 68.8686H64.8609C63.569 68.8686 62.5166 67.8162 62.5166 66.5243C62.5166 66.1051 62.6364 65.6944 62.8332 65.3522C62.9358 65.1725 63.0556 65.0099 63.2096 64.873C63.6289 64.4367 64.2192 64.18 64.8609 64.18H68.3773C67.0854 64.18 66.033 63.1277 66.033 61.8357L66.3496 60.6636C66.4523 60.4839 66.5721 60.3214 66.7261 60.1845C67.1453 59.7481 67.7356 59.4915 68.3773 59.4915H72.5183C73.6648 59.4915 74.7942 59.654 75.8893 59.9877L76.5823 60.2016L81.2709 61.6047L84.4708 62.563C85.4547 62.8539 86.4728 63.0079 87.5081 63.0079H95.3366V77.0736H89.3561C87.1487 77.0736 85.0354 77.8436 83.3414 79.2382L81.5361 80.7611C81.442 80.8296 81.3564 80.898 81.2623 80.975C79.902 82.0188 78.2849 82.6776 76.5738 82.8659H76.5823Z" fill="white"/>
<path d="M71.8938 77.0821C71.8938 77.7323 71.3718 78.2542 70.7216 78.2542H51.9673C50.6754 78.2542 49.623 77.2018 49.623 75.9099H70.7131C71.3633 75.9099 71.8852 76.4318 71.8852 77.0821H71.8938Z" fill="#D8F794"/>
<path d="M68.3771 72.3936C68.3771 73.0438 67.8552 73.5657 67.2049 73.5657H63.6885C62.3966 73.5657 61.3442 72.5134 61.3442 71.2214H67.2049C67.8552 71.2214 68.3771 71.7433 68.3771 72.3936Z" fill="#D8F794"/>
<path d="M68.3773 67.705C68.3773 68.3552 67.8554 68.8771 67.2052 68.8771H64.8609C63.569 68.8771 62.5166 67.8248 62.5166 66.5328H67.2052C67.8554 66.5328 68.3773 67.0547 68.3773 67.705Z" fill="#D8F794"/>
<path d="M70.7218 63.0164C70.7218 63.6666 70.1999 64.1885 69.5496 64.1885H68.3775C67.0856 64.1885 66.0332 63.1362 66.0332 61.8442H69.5496C70.1999 61.8442 70.7218 62.3661 70.7218 63.0164Z" fill="#D8F794"/>
<path d="M56.6559 78.2543C56.6559 78.896 56.1255 79.4264 55.4838 79.4264H48.451C47.8093 79.4264 47.2788 78.896 47.2788 78.2543H56.6559Z" fill="#94BF37"/>
<path d="M56.6555 73.5657H55.4834V72.3936C56.1251 72.3936 56.6555 72.924 56.6555 73.5657Z" fill="#94BF37"/>
<path d="M89.3558 74.7378C87.1484 74.7378 85.0351 75.5078 83.3411 76.9024L81.5358 78.4253C81.4417 78.4938 81.3562 78.5622 81.262 78.6392C79.9017 79.683 78.2846 80.3418 76.5735 80.5301C76.2227 80.5728 75.8719 80.5985 75.5211 80.5985H69.5406C67.8124 80.5985 66.3151 79.6488 65.5023 78.2542H64.8521C64.8521 80.8466 66.9482 82.9428 69.5406 82.9428H75.5211C75.8719 82.9428 76.2227 82.9171 76.5735 82.8743C78.2846 82.6861 79.9017 82.0273 81.262 80.9835C81.3562 80.9151 81.4417 80.8466 81.5358 80.7696L83.3411 79.2467C85.0266 77.8521 87.1484 77.0821 89.3558 77.0821H95.3363V74.7378H89.3558Z" fill="#D8F794"/>
<path d="M66.0331 61.8443C66.0331 63.1362 67.0854 64.1885 68.3773 64.1885H64.8609C64.2192 64.1885 63.6289 64.4452 63.2097 64.8816C63.0556 65.0185 62.9359 65.1896 62.8332 65.3607H37.9102C36.6183 65.3607 35.5659 64.3083 35.5659 63.0164C35.5659 62.3747 35.8226 61.7844 36.2589 61.3651C36.6782 60.9288 37.2685 60.6721 37.9102 60.6721H66.3496L66.0331 61.8443Z" fill="white"/>
<path d="M68.3773 64.1885H64.8609C64.2192 64.1885 63.6289 64.4452 63.2097 64.8815C63.0556 65.0184 62.9359 65.1896 62.8332 65.3607H37.9102C36.6183 65.3607 35.5659 64.3083 35.5659 63.0164C35.5659 62.9137 35.5745 62.8025 35.5916 62.7084C35.9338 62.9052 36.3188 63.0164 36.7381 63.0164H61.6611C61.7637 62.8367 61.8835 62.6742 62.0375 62.5373C62.4567 62.1009 63.0471 61.8442 63.6888 61.8442H66.0331C66.0331 63.1362 67.0854 64.1885 68.3773 64.1885Z" fill="#EDFBCC"/>
<path d="M51.3855 41.9264H52.5577C53.533 41.9264 54.3116 42.7135 54.3116 43.6803V45.6482C53.5502 45.5113 52.763 45.4343 51.9673 45.4343C51.1716 45.4343 50.3845 45.5027 49.623 45.6482V43.6803C49.623 42.705 50.4102 41.9264 51.377 41.9264H51.3855Z" fill="#999999"/>
<path d="M54.3113 43.6803V45.6482C53.5499 45.5113 52.7628 45.4343 51.9671 45.4343V43.6803C51.9671 42.9189 51.4708 42.2601 50.7949 42.0291C50.9831 41.9606 51.1714 41.9264 51.3767 41.9264H52.5489C53.5242 41.9264 54.3028 42.7135 54.3028 43.6803H54.3113Z" fill="#808080"/>
<path d="M54.3116 45.6482C60.968 46.8546 66.033 53.126 66.033 60.6722H37.9102C37.9102 53.126 42.9752 46.8546 49.6316 45.6482C50.393 45.5113 51.1802 45.4343 51.9759 45.4343C52.7716 45.4343 53.5587 45.5028 54.3202 45.6482H54.3116Z" fill="#EDFBCC"/>
<path d="M37.9102 60.6722H42.5987C42.5987 55.7612 44.7462 51.3892 48.083 48.6085C48.8787 47.9412 49.1097 46.7947 48.5536 45.922V45.9049C42.4362 47.5647 37.9102 53.5452 37.9102 60.6722Z" fill="white"/>
<path d="M66.033 60.6722H61.3445C61.3445 53.126 56.2794 46.8546 49.623 45.6482C50.3845 45.5113 51.1716 45.4343 51.9673 45.4343C52.763 45.4343 53.5502 45.5028 54.3116 45.6482C60.968 46.8546 66.033 53.126 66.033 60.6722Z" fill="#EDFBCC"/>
<path d="M51.9673 93.4836C53.262 93.4836 54.3116 92.434 54.3116 91.1393C54.3116 89.8446 53.262 88.795 51.9673 88.795C50.6726 88.795 49.623 89.8446 49.623 91.1393C49.623 92.434 50.6726 93.4836 51.9673 93.4836Z" fill="white"/>
<path d="M81.2709 61.6133V24.3443C81.2709 23.7026 80.7405 23.1721 80.0988 23.1721H23.8445C23.2028 23.1721 22.6724 23.7026 22.6724 24.3443V94.6557C22.6724 95.2974 23.2028 95.8278 23.8445 95.8278H80.0988C80.7405 95.8278 81.2709 95.2974 81.2709 94.6557V80.9836C79.9106 82.0274 78.2935 82.6862 76.5824 82.8744V85.2871C76.5824 85.9288 76.0519 86.4593 75.4102 86.4593H28.5331C27.8914 86.4593 27.3609 85.9288 27.3609 85.2871V29.0328C27.3609 28.3911 27.8914 27.8607 28.5331 27.8607H75.4102C76.0519 27.8607 76.5824 28.3911 76.5824 29.0328V60.2016L81.2709 61.6047V61.6133ZM51.9674 88.795C53.2593 88.795 54.3117 89.8473 54.3117 91.1393C54.3117 92.4312 53.2593 93.4836 51.9674 93.4836C50.6754 93.4836 49.6231 92.4312 49.6231 91.1393C49.6231 89.8473 50.6754 88.795 51.9674 88.795Z" fill="#EDFBCC"/>
<path d="M81.2708 24.3443V61.6133L77.7544 60.5609V23.1721H80.0987C80.7404 23.1721 81.2708 23.7026 81.2708 24.3443Z" fill="white"/>
<path d="M81.2709 80.9835V94.6557C81.2709 95.2973 80.7405 95.8278 80.0988 95.8278H23.8445C23.2028 95.8278 22.6724 95.2973 22.6724 94.6557V91.1392H49.6231C49.6231 92.4312 50.6754 93.4835 51.9674 93.4835C53.2593 93.4835 54.3117 92.4312 54.3117 91.1392H76.5738C77.2155 91.1392 77.7459 90.6088 77.7459 89.9671V82.669C79.0208 82.3524 80.2186 81.7792 81.2624 80.9835H81.2709Z" fill="white"/>
<path d="M47.2788 73.2235V74.1047C47.2788 74.8577 48.451 74.8577 48.451 74.1047V73.2235C48.451 72.4706 47.2788 72.4706 47.2788 73.2235Z" fill="#D8F794"/>
<path d="M47.8176 74.8833C47.0647 74.8833 47.0647 76.0554 47.8176 76.0554C48.5705 76.0554 48.5705 74.8833 47.8176 74.8833Z" fill="#D8F794"/>
<path d="M55.4835 91.1392C55.4835 89.1971 53.9093 87.6228 51.9671 87.6228C50.0249 87.6228 48.4507 89.1971 48.4507 91.1392C48.4507 93.0814 50.0249 94.6557 51.9671 94.6557C53.9093 94.6557 55.4835 93.0814 55.4835 91.1392ZM51.9671 92.3114C51.3254 92.3114 50.795 91.7895 50.795 91.1392C50.795 90.489 51.3254 89.9671 51.9671 89.9671C52.6088 89.9671 53.1393 90.489 53.1393 91.1392C53.1393 91.7895 52.6088 92.3114 51.9671 92.3114Z" fill="#699F2F"/>
<path d="M95.3279 61.8443H87.4993C86.5924 61.8443 85.6855 61.7074 84.8042 61.4507L82.4428 60.7406V24.3443C82.4428 23.0524 81.3905 22 80.0986 22H23.8443C22.5524 22 21.5 23.0524 21.5 24.3443V94.6557C21.5 95.9476 22.5524 97 23.8443 97H80.0986C81.3905 97 82.4428 95.9476 82.4428 94.6557V81.5226L84.0941 80.1451C85.5743 78.9216 87.448 78.2457 89.3559 78.2457H95.3364C95.9867 78.2457 96.5086 77.7238 96.5086 77.0736V63.0079C96.5086 62.3576 95.9867 61.8357 95.3364 61.8357L95.3279 61.8443ZM80.0986 94.6557H23.8443V24.3443H80.0986V60.0305L77.7543 59.3289V29.0329C77.7543 27.7409 76.7019 26.6886 75.41 26.6886H41.4264C40.7762 26.6886 40.2543 27.2105 40.2543 27.8607C40.2543 28.511 40.7762 29.0329 41.4264 29.0329H75.41V58.6615C74.4603 58.4476 73.4935 58.3364 72.5181 58.3364H68.3771C67.9151 58.3364 67.4788 58.4305 67.0681 58.5845C66.2724 51.8255 61.6951 46.2899 55.4836 44.7242V43.6889C55.4836 42.0719 54.166 40.7628 52.5575 40.7628H51.3854C49.7683 40.7628 48.4593 42.0804 48.4593 43.6889V44.7242C41.9055 46.384 37.1742 52.45 36.7806 59.7053C36.2758 59.8765 35.8138 60.1502 35.4374 60.5267C34.7615 61.1855 34.3936 62.0667 34.3936 63.0164C34.3936 64.9586 35.9678 66.5329 37.91 66.5329H61.3443C61.3443 67.1574 61.524 67.7392 61.8148 68.2526C61.601 68.3895 61.3956 68.5435 61.2159 68.7317C60.54 69.3905 60.1721 70.2717 60.1721 71.2214C60.1721 71.6321 60.2577 72.0257 60.386 72.3936H60.1721C60.1721 70.4514 58.5979 68.8771 56.6557 68.8771H47.2786C45.3364 68.8771 43.7621 70.4514 43.7621 72.3936V79.4264C43.7621 81.3686 45.3364 82.9428 47.2786 82.9428H56.6557C58.5979 82.9428 60.1721 81.3686 60.1721 79.4264H63.8083C64.3559 82.0958 66.7173 84.115 69.5493 84.115H75.41V85.2871H28.5329V29.0329H36.7379C37.3881 29.0329 37.91 28.511 37.91 27.8607C37.91 27.2105 37.3881 26.6886 36.7379 26.6886H28.5329C27.2409 26.6886 26.1886 27.7409 26.1886 29.0329V85.2871C26.1886 86.5791 27.2409 87.6314 28.5329 87.6314H75.41C76.7019 87.6314 77.7543 86.5791 77.7543 85.2871V83.8498C78.5671 83.6786 79.3542 83.4049 80.0986 83.0455V94.6643V94.6557ZM46.1064 59.5H39.1249C39.604 53.1174 43.9589 47.8641 49.8368 46.8032C51.2057 46.5465 52.7201 46.5465 54.1061 46.8032C59.9839 47.8727 64.3388 53.1174 64.8179 59.5H49.6314C48.9812 59.5 48.4593 60.0219 48.4593 60.6721C48.4593 61.3224 48.9812 61.8443 49.6314 61.8443H64.8693C64.8693 62.255 64.9548 62.6485 65.0832 63.0164H64.8693C63.9196 63.0164 63.0383 63.3843 62.4223 64.0175C62.371 64.0688 62.3196 64.1287 62.2683 64.1886H37.9185C37.2769 64.1886 36.7464 63.6667 36.7464 63.0164C36.7464 62.6999 36.8662 62.4175 37.1057 62.178C37.3196 61.9641 37.602 61.8443 37.9185 61.8443H46.1235C46.7738 61.8443 47.2957 61.3224 47.2957 60.6721C47.2957 60.0219 46.7738 59.5 46.1235 59.5H46.1064ZM50.795 44.322V43.6804C50.795 43.3552 51.0602 43.0986 51.3768 43.0986H52.5489C52.8741 43.0986 53.1307 43.3638 53.1307 43.6804V44.322C52.3522 44.2621 51.565 44.2621 50.7864 44.322H50.795ZM51.9671 79.4264H57.8279C57.8279 80.0767 57.2974 80.5986 56.6557 80.5986H47.2786C46.6369 80.5986 46.1064 80.0767 46.1064 79.4264V72.3936C46.1064 71.7433 46.6369 71.2214 47.2786 71.2214H56.6557C57.2974 71.2214 57.8279 71.7433 57.8279 72.3936H51.9671C51.0175 72.3936 50.1362 72.7615 49.4945 73.4203C48.8186 74.0791 48.4507 74.9603 48.4507 75.91C48.4507 77.8522 50.025 79.4264 51.9671 79.4264ZM94.1557 75.91H89.3474C86.8919 75.91 84.4877 76.7741 82.5797 78.3569L80.8344 79.8371L80.552 80.0595C79.3542 80.975 77.934 81.5483 76.4196 81.7194C76.1201 81.7621 75.8207 81.7793 75.5212 81.7793H69.5407C68.0178 81.7793 66.7259 80.7953 66.2382 79.435H70.7129C71.3631 79.435 71.885 78.9131 71.885 78.2628C71.885 77.6126 71.3631 77.0907 70.7129 77.0907H51.9586C51.3169 77.0907 50.7864 76.5688 50.7864 75.9185C50.7864 75.602 50.9062 75.3196 51.1458 75.0801C51.3597 74.8662 51.642 74.7464 51.9586 74.7464H67.1964C67.8467 74.7464 68.3686 74.2245 68.3686 73.5743C68.3686 72.924 67.8467 72.4021 67.1964 72.4021H63.68C63.0383 72.4021 62.5079 71.8802 62.5079 71.23C62.5079 70.9134 62.6277 70.6311 62.8672 70.3915C63.0811 70.1776 63.3634 70.0578 63.68 70.0578H67.1964C67.8467 70.0578 68.3686 69.5359 68.3686 68.8857C68.3686 68.2355 67.8467 67.7136 67.1964 67.7136H64.8522C64.2105 67.7136 63.68 67.1917 63.68 66.5414C63.68 66.3361 63.7313 66.1307 63.834 65.9682C63.8939 65.8655 63.9538 65.7885 64.0394 65.7029C64.2533 65.489 64.5356 65.3693 64.8522 65.3693H69.5407C70.191 65.3693 70.7129 64.8474 70.7129 64.1971C70.7129 63.5469 70.191 63.025 69.5407 63.025H68.3686C67.7697 63.025 67.2649 62.5715 67.205 61.9812L67.4274 61.1598C67.4617 61.1085 67.5045 61.0657 67.5558 61.0144C67.7697 60.8005 68.052 60.6807 68.3686 60.6807H72.5096C73.5448 60.6807 74.563 60.8261 75.5469 61.1256L84.1283 63.7009C85.232 64.026 86.3614 64.1971 87.4993 64.1971H94.1557V75.9185V75.91Z" fill="#699F2F"/>
<path d="M47.2786 33.7215H56.6557C57.306 33.7215 57.8279 33.1996 57.8279 32.5493C57.8279 31.8991 57.306 31.3772 56.6557 31.3772H47.2786C46.6283 31.3772 46.1064 31.8991 46.1064 32.5493C46.1064 33.1996 46.6283 33.7215 47.2786 33.7215Z" fill="white"/>
<path d="M40.2542 38.41H63.6885C64.3387 38.41 64.8606 37.8881 64.8606 37.2378C64.8606 36.5876 64.3387 36.0657 63.6885 36.0657H40.2542C39.6039 36.0657 39.082 36.5876 39.082 37.2378C39.082 37.8881 39.6039 38.41 40.2542 38.41Z" fill="white"/>
<path d="M48.7504 47.9753C47.2446 47.9753 45.773 50.1228 47.2873 50.1228C48.8017 50.1228 50.2648 47.9753 48.7504 47.9753Z" fill="white"/>
</g>
<defs>
<clipPath id="clip0_628_750">
<rect width="75" height="75" fill="white" transform="translate(21.5 22)"/>
</clipPath>
</defs>
</svg>
