<svg width="75" height="83" viewBox="0 0 75 83" fill="none" xmlns="http://www.w3.org/2000/svg">
<path d="M0 61.3294L10.6874 51.021" stroke="white" stroke-width="2" stroke-linecap="round" stroke-linejoin="round"/>
<path d="M46.9956 62.8959L21.7818 66.516L14.6162 81.9379" stroke="white" stroke-width="2" stroke-linecap="round" stroke-linejoin="round"/>
<path d="M36.5356 48.4561L56.0479 49.909L68.2806 41.1997C69.46 40.3636 71.046 40.3961 72.1847 41.2808C73.665 42.4253 73.8683 44.5763 72.6483 45.9886L62.2863 57.896C60.4888 59.9657 58.008 61.3131 55.2915 61.7027L52.6643 62.0761" stroke="white" stroke-width="2" stroke-linecap="round" stroke-linejoin="round"/>
<path d="M10.6875 51.021C10.6875 51.021 16.7551 41.7597 28.2152 43.1802L38.0079 35.4773C38.9514 34.7387 40.2039 34.5358 41.3345 34.9497C43.5224 35.7533 44.2951 38.4481 42.8717 40.2825L36.5357 48.448L34.0875 51.7109" stroke="white" stroke-width="2" stroke-linecap="round" stroke-linejoin="round"/>
<path d="M14.7293 46.8896C12.7204 45.2743 11.0286 43.237 9.80044 40.875L5.31889 32.2793C4.79835 31.2809 5.52223 30.0878 6.65278 30.0878H70.3868C71.5173 30.0878 72.2412 31.2809 71.7207 32.2793L67.2391 40.875C66.9056 41.5162 66.5396 42.1331 66.133 42.7256" stroke="white" stroke-width="2" stroke-linecap="round" stroke-linejoin="round"/>
<path d="M22.7407 34.7468H70.4355" stroke="white" stroke-width="2" stroke-linecap="round" stroke-linejoin="round"/>
<path d="M6.60498 34.7468H17.0158" stroke="white" stroke-width="2" stroke-linecap="round" stroke-linejoin="round"/>
<path d="M11.6306 30.0797C10.3049 28.7647 9.4834 26.9385 9.4834 24.9336C9.4834 20.9239 12.7368 17.6772 16.7547 17.6772C18.7881 17.6772 20.6263 18.5132 21.952 19.8525C23.2371 21.1593 24.0342 22.9531 24.0342 24.9336C24.0342 26.9141 23.2453 28.7079 21.952 30.0147C21.9276 30.0391 21.9114 30.0634 21.887 30.0797" stroke="white" stroke-width="2" stroke-linecap="round" stroke-linejoin="round"/>
<path d="M22.0179 30.0803C22.0179 30.0803 21.9768 30.0311 21.9521 30.0147" stroke="white" stroke-width="2" stroke-linecap="round" stroke-linejoin="round"/>
<path d="M21.9521 20.9726C23.2698 19.6252 25.1161 18.7973 27.1494 18.7973C31.1674 18.7973 34.4208 22.044 34.4208 26.0537C34.4208 26.2485 34.4126 26.4514 34.3964 26.6462" stroke="white" stroke-width="2" stroke-linecap="round" stroke-linejoin="round"/>
<path d="M58.6017 30.0797H44.604L50.5577 19.0408C51.0213 18.1804 52.2657 18.1804 52.7294 19.0408L55.9584 25.1122" stroke="white" stroke-width="2" stroke-linecap="round" stroke-linejoin="round"/>
<path d="M53.2827 30.0797L59.2364 19.0408C59.7 18.1804 60.9445 18.1804 61.4081 19.0408L67.2804 30.0715H53.2827V30.0797Z" stroke="white" stroke-width="2" stroke-linecap="round" stroke-linejoin="round"/>
<path d="M34.8848 1.06204V5.20973C34.8848 6.23245 35.2914 7.21459 36.0153 7.93698C36.7392 8.65938 37.1459 9.64151 37.1459 10.6642V14.2681" stroke="white" stroke-width="2" stroke-linecap="round" stroke-linejoin="round"/>
<path d="M40.1958 1.06204V5.20973C40.1958 6.23245 40.6025 7.21459 41.3264 7.93698C42.0502 8.65938 42.4569 9.64151 42.4569 10.6642" stroke="white" stroke-width="2" stroke-linecap="round" stroke-linejoin="round"/>
<path d="M30.9888 30.0796C30.9888 30.0796 33.502 23.6755 39.5208 23.6755C44.5148 23.6755 46.3204 19.8849 49.6795 20.6885" stroke="white" stroke-width="2" stroke-linecap="round" stroke-linejoin="round"/>
</svg>
