<svg width="82" height="73" viewBox="0 0 82 73" fill="none" xmlns="http://www.w3.org/2000/svg">
<g clip-path="url(#clip0_681_522)">
<path d="M57.481 19.6689C60.6994 24.5269 61.5101 30.8324 59.6348 36.2874C60.2899 33.5313 60.2817 30.6607 59.6757 27.9618C59.0779 25.2629 57.8495 22.7358 56.1543 20.6258L57.481 19.6689Z" fill="#699F2F"/>
<path d="M22.9796 37.326C19.2944 26.2034 27.0497 13.7233 38.7441 12.3738C42.3884 11.8504 46.1555 12.472 49.4312 14.0586C46.0982 12.6028 42.3474 12.1367 38.8014 12.7828C27.8195 14.4348 20.6538 26.3997 24.5356 36.8108L22.9796 37.326Z" fill="#699F2F"/>
<path d="M41.569 1.29218C45.762 1.29218 49.267 5.11965 48.9804 9.24972L48.399 9.23336L34.7391 8.9144H34.4771C34.5262 7.01702 35.3615 5.17689 36.7455 3.92561C38.0558 2.71521 39.8247 2.06094 41.569 2.11001C38.0558 2.12637 34.9684 5.19325 34.9848 8.67723L34.7391 8.4237L48.399 8.10474L47.8257 8.69359C47.6783 5.47949 44.7547 2.78064 41.569 2.92785V1.29218Z" fill="#699F2F"/>
<path d="M18.8438 37.4569L19.0567 8.66087V8.05568H19.6545L33.0277 8.16199L32.52 8.6527C32.6182 3.93378 36.8603 -0.122679 41.5692 -4.06359e-06C46.2453 -0.0572525 50.3891 3.99921 50.4137 8.6527L50.1025 8.35828L63.4757 8.45642H63.6886V8.66905L63.4839 36.639L63.2792 8.66905L63.4839 8.87351L50.1107 8.97165H49.8159C49.8159 1.82377 41.0615 -1.90556 35.9595 3.13231C34.3462 4.70255 33.4863 6.93524 33.5436 9.15975H33.0523L19.6791 9.25789L20.2851 8.6527L20.498 37.4487H18.8601L18.8438 37.4569Z" fill="#699F2F"/>
<path d="M62.3946 65.3614C62.0671 65.3614 61.7559 65.2306 61.5266 65.0016L40.914 44.4085C39.5627 45.4226 36.8357 47.0337 33.1914 47.0337C28.892 47.0337 26.7218 45.1118 26.1649 43.4679C25.7555 42.2412 26.1158 41.0144 27.1149 40.2457C28.892 38.8962 30.6609 37.4078 32.3806 35.9766C36.8357 32.2472 40.3571 29.303 42.9122 29.303H48.9313C50.43 29.303 51.8713 30.2436 53.8695 31.5357C56.7767 33.4249 60.7486 36.0175 66.997 36.9416H68.5039C69.1836 36.9416 69.7323 37.4896 69.7323 38.1684C69.7323 38.8472 69.1836 39.3951 68.5039 39.3951H66.907C66.8496 39.3951 66.7923 39.3951 66.7268 39.3788C59.8969 38.3892 55.4664 35.5022 52.5265 33.5885C51.0114 32.5989 49.7011 31.7484 48.9313 31.7484H42.9122C41.2497 31.7484 37.3762 34.987 33.9612 37.8494C32.2251 39.3052 30.4234 40.81 28.6054 42.1921C28.4989 42.2739 28.3924 42.3802 28.4907 42.6746C28.7446 43.4352 30.2105 44.572 33.1914 44.572C37.368 44.572 40.0868 41.9059 40.1196 41.8732C40.5782 41.4152 41.3971 41.4152 41.8557 41.8732L62.3946 62.3927L64.5812 60.209C64.8105 59.9801 65.1217 59.8492 65.4493 59.8492H68.5039C69.1836 59.8492 69.7323 60.3971 69.7323 61.0759C69.7323 61.7548 69.1836 62.3027 68.5039 62.3027H65.957L63.2627 65.0016C63.0334 65.2306 62.7222 65.3614 62.3946 65.3614Z" fill="#699F2F"/>
<path d="M44.0586 73C42.9366 73 41.8638 72.5584 41.0449 71.7569L30.9802 61.9756C30.497 61.5012 30.4806 60.7243 30.9556 60.2418C31.4306 59.7592 32.2086 59.7511 32.6917 60.2172L42.7564 69.9985C43.1168 70.3502 43.5836 70.5465 44.0586 70.5465C45.0658 70.5465 45.8848 69.7286 45.8848 68.7227V67.1934C45.8848 66.5146 46.4335 65.9666 47.1132 65.9666C47.7929 65.9666 48.3416 66.5146 48.3416 67.1934V68.7227C48.3416 71.0781 46.4171 73 44.0586 73Z" fill="#699F2F"/>
<path d="M51.7074 71.4706C50.5854 71.4706 49.5126 71.029 48.6855 70.2275L38.6208 60.4462C38.1376 59.9719 38.1212 59.1949 38.5962 58.7124C39.0712 58.2299 39.8492 58.2135 40.3324 58.6879L50.3971 68.4692C50.7574 68.8209 51.2242 69.0171 51.6992 69.0171C52.7065 69.0171 53.5254 68.1993 53.5254 67.1934V65.664C53.5254 64.9852 54.0741 64.4373 54.7538 64.4373C55.4335 64.4373 55.9822 64.9852 55.9822 65.664V67.1934C55.9822 69.5487 54.0577 71.4706 51.6992 71.4706H51.7074Z" fill="#699F2F"/>
<path d="M34.8868 73C33.7567 73 32.6839 72.5584 31.865 71.7569L19.0978 59.2522H13.4799C12.8002 59.2522 12.2515 58.7042 12.2515 58.0254C12.2515 57.3466 12.8002 56.7987 13.4799 56.7987H19.5973C19.9167 56.7987 20.2279 56.9214 20.4572 57.1503L33.5847 70.0067C33.9451 70.3584 34.4037 70.5465 34.8868 70.5465C35.8941 70.5465 36.7131 69.7287 36.7131 68.7227V67.1934C36.7131 66.5146 37.2618 65.9666 37.9415 65.9666C38.6212 65.9666 39.1699 66.5146 39.1699 67.1934V68.7227C39.1699 71.0781 37.2454 73 34.8868 73Z" fill="#699F2F"/>
<path d="M59.3564 69.9413C58.2345 69.9413 57.1617 69.4997 56.3427 68.6982L46.278 58.9169C45.7948 58.4425 45.7785 57.6656 46.2534 57.1831C46.7284 56.7005 47.5064 56.6842 47.9896 57.1585L58.0543 66.9398C58.4146 67.2915 58.8814 67.4878 59.3564 67.4878C60.3637 67.4878 61.1826 66.6699 61.1826 65.664V64.1347C61.1826 63.4559 61.7313 62.9079 62.411 62.9079C63.0907 62.9079 63.6394 63.4559 63.6394 64.1347V65.664C63.6394 68.0194 61.7149 69.9413 59.3564 69.9413Z" fill="#699F2F"/>
<path d="M79.1257 65.3614H70.1666C68.586 65.3614 67.3003 64.0774 67.3003 62.499V38.2747C67.3003 36.6963 68.586 35.4123 70.1666 35.4123H79.1257C80.7063 35.4123 81.992 36.6963 81.992 38.2747V62.499C81.992 64.0774 80.7063 65.3614 79.1257 65.3614ZM70.1748 37.8658C69.9455 37.8658 69.7653 38.0539 69.7653 38.2747V62.499C69.7653 62.728 69.9536 62.9079 70.1748 62.9079H79.1339C79.3632 62.9079 79.5434 62.7198 79.5434 62.499V38.2747C79.5434 38.0457 79.355 37.8658 79.1339 37.8658H70.1748Z" fill="#699F2F"/>
<path d="M11.8254 62.3027H2.86627C1.28573 62.3027 0 61.0187 0 59.4403V35.216C0 33.6376 1.28573 32.3536 2.86627 32.3536H11.8254C13.406 32.3536 14.6917 33.6376 14.6917 35.216V59.4403C14.6917 61.0187 13.406 62.3027 11.8254 62.3027ZM2.86627 34.8071C2.63697 34.8071 2.45681 34.9952 2.45681 35.216V59.4403C2.45681 59.6693 2.64516 59.8492 2.86627 59.8492H11.8254C12.0547 59.8492 12.2349 59.6611 12.2349 59.4403V35.216C12.2349 34.987 12.0465 34.8071 11.8254 34.8071H2.86627Z" fill="#699F2F"/>
<path d="M33.3471 35.813H13.4634V37.4487H33.3471V35.813Z" fill="#699F2F"/>
<path d="M7.34586 41.2189C8.19164 41.2189 8.87727 40.5342 8.87727 39.6895C8.87727 38.8449 8.19164 38.1602 7.34586 38.1602C6.50009 38.1602 5.81445 38.8449 5.81445 39.6895C5.81445 40.5342 6.50009 41.2189 7.34586 41.2189Z" fill="#699F2F"/>
<path d="M74.654 59.5548C75.4997 59.5548 76.1854 58.87 76.1854 58.0254C76.1854 57.1808 75.4997 56.4961 74.654 56.4961C73.8082 56.4961 73.1226 57.1808 73.1226 58.0254C73.1226 58.87 73.8082 59.5548 74.654 59.5548Z" fill="#699F2F"/>
<path d="M32.6017 36.4755C31.7663 34.8725 31.2995 33.0405 31.2995 31.0941C31.2995 24.8213 36.1476 19.7262 42.3961 19.5953C45.2624 19.7916 47.8339 21.0347 49.742 22.9403C51.8303 25.0258 53.1242 27.9045 53.1242 31.0941C53.1242 31.4212 53.0996 31.7402 53.075 32.0591L53.3043 32.19C53.3371 31.8301 53.3617 31.4621 53.3617 31.0941C53.3617 24.6005 48.0877 19.3336 41.5854 19.3336C35.083 19.3336 29.8091 24.6005 29.8091 31.0941C29.8091 33.384 30.4724 35.5104 31.6107 37.3178L32.6017 36.4755Z" fill="#699F2F"/>
<path d="M52.0516 12.9382L53.583 15.5552L55.9825 13.6906L54.4839 16.3322L57.301 17.469L54.2546 17.4935L54.6722 20.495L53.1408 17.8779L50.7413 19.7426L52.24 17.101L49.4229 15.9642L52.4693 15.9396L52.0516 12.9382Z" fill="#699F2F"/>
</g>
<defs>
<clipPath id="clip0_681_522">
<rect width="82" height="73" fill="white"/>
</clipPath>
</defs>
</svg>
