<svg width="118" height="119" viewBox="0 0 118 119" fill="none" xmlns="http://www.w3.org/2000/svg">
<rect y="0.5" width="118" height="118" rx="10" fill="#D8F794"/>
<g clip-path="url(#clip0_628_706)">
<path d="M79.0403 85.5746H27.7412V46.0824C27.7412 42.3343 30.7968 39.2925 34.5619 39.2925H72.2196C75.9847 39.2925 79.0403 42.3343 79.0403 46.0824V85.5746Z" fill="#EDFBCC"/>
<path d="M79.0403 87.1719H27.7412C26.8527 87.1719 26.1367 86.4592 26.1367 85.5747V46.0825C26.1367 41.4562 29.9146 37.6953 34.5619 37.6953H72.226C76.8732 37.6953 80.6511 41.4562 80.6511 46.0825V85.5747C80.6511 86.4592 79.9352 87.1719 79.0467 87.1719H79.0403ZM29.3393 83.9838H77.4358V46.0888C77.4358 43.2252 75.0961 40.8962 72.2196 40.8962H34.5619C31.6853 40.8962 29.3457 43.2252 29.3457 46.0888V83.9838H29.3393Z" fill="#699F2F"/>
<path d="M107.895 85.5746H79.04V55.2523H93.864C97.4693 55.2523 100.832 57.0532 102.788 60.025L107.902 67.814V85.581L107.895 85.5746Z" fill="#EDFBCC"/>
<path d="M107.895 87.1719H79.04C78.1515 87.1719 77.4355 86.4591 77.4355 85.5746V55.2523C77.4355 54.3677 78.1515 53.655 79.04 53.655H93.864C98.0319 53.655 101.867 55.7105 104.124 59.1531L109.238 66.9421C109.41 67.203 109.5 67.5085 109.5 67.8139V85.581C109.5 86.4655 108.784 87.1782 107.895 87.1782V87.1719ZM80.6445 83.9837H106.297V68.2912L101.445 60.9031C99.7834 58.3704 96.9452 56.8559 93.864 56.8559H80.6445V83.9837Z" fill="#699F2F"/>
<path d="M79.0403 85.5746H22.9277V83.9965C22.9277 80.4583 25.8107 77.5947 29.3585 77.5947H79.0339V85.5746H79.0403Z" fill="#EDFBCC"/>
<path d="M79.0403 87.172H22.9277C22.0456 87.172 21.3232 86.4592 21.3232 85.5747V83.9965C21.3232 79.5866 24.9286 75.9976 29.3585 75.9976H79.0403C79.9288 75.9976 80.6448 76.7103 80.6448 77.5948V85.5747C80.6448 86.4592 79.9288 87.172 79.0403 87.172ZM24.5322 83.9838H77.4358V79.1984H29.3585C26.7056 79.1984 24.5386 81.3429 24.5258 83.9838H24.5322Z" fill="#699F2F"/>
<path d="M101.132 85.1802C101.132 89.1701 97.8851 92.4092 93.8707 92.4092C89.8562 92.4092 86.6089 89.1765 86.6089 85.1802C86.6089 81.1839 89.8626 77.9512 93.8707 77.9512C97.8787 77.9512 101.132 81.1839 101.132 85.1802Z" fill="white"/>
<path d="M93.8706 93.9999C88.9868 93.9999 85.0107 90.0418 85.0107 85.1736C85.0107 80.3055 88.9868 76.3538 93.8706 76.3538C98.7544 76.3538 102.73 80.3119 102.73 85.1736C102.73 90.0354 98.7544 93.9999 93.8706 93.9999ZM93.8706 79.5483C90.7511 79.5483 88.2133 82.0746 88.2133 85.18C88.2133 88.2854 90.7511 90.8118 93.8706 90.8118C96.9901 90.8118 99.5279 88.2854 99.5279 85.18C99.5279 82.0746 96.9901 79.5483 93.8706 79.5483Z" fill="#699F2F"/>
<path d="M50.1849 56.8495H10.1045C9.21595 56.8495 8.5 56.1368 8.5 55.2523C8.5 54.3677 9.21595 53.655 10.1045 53.655H50.1849C51.067 53.655 51.7894 54.3677 51.7894 55.2523C51.7894 56.1368 51.0734 56.8495 50.1849 56.8495Z" fill="#699F2F"/>
<path d="M96.4913 85.1801C96.4913 86.6246 95.3151 87.7892 93.8704 87.7892C92.4257 87.7892 91.2495 86.6183 91.2495 85.1801C91.2495 83.7419 92.4257 82.571 93.8704 82.571C95.3151 82.571 96.4913 83.7419 96.4913 85.1801Z" fill="#EDFBCC"/>
<path d="M53.0357 85.1802C53.0357 89.1701 49.7884 92.4092 45.774 92.4092C41.7595 92.4092 38.5122 89.1765 38.5122 85.1802C38.5122 81.1839 41.7595 77.9512 45.774 77.9512C49.7884 77.9512 53.0357 81.1839 53.0357 85.1802Z" fill="white"/>
<path d="M45.7739 94C40.8901 94 36.9141 90.0419 36.9141 85.1738C36.9141 80.3056 40.8901 76.3539 45.7739 76.3539C50.6577 76.3539 54.6402 80.312 54.6402 85.1738C54.6402 90.0355 50.6641 94 45.7739 94ZM45.7739 79.5484C42.6544 79.5484 40.1167 82.0747 40.1167 85.1801C40.1167 88.2855 42.6544 90.8119 45.7739 90.8119C48.8934 90.8119 51.4312 88.2855 51.4312 85.1801C51.4312 82.0747 48.8934 79.5484 45.7739 79.5484Z" fill="#699F2F"/>
<path d="M48.3951 85.1801C48.3951 86.6246 47.2189 87.7892 45.7742 87.7892C44.3295 87.7892 43.1533 86.6183 43.1533 85.1801C43.1533 83.7419 44.3295 82.571 45.7742 82.571C47.2189 82.571 48.3951 83.7419 48.3951 85.1801Z" fill="#EDFBCC"/>
<path d="M46.1512 40.6416C46.1512 48.3988 39.8355 54.6924 32.0367 54.6924C24.238 54.6924 17.9287 48.4052 17.9287 40.6416C17.9287 32.8781 24.2508 26.5973 32.0431 26.5973C39.8355 26.5973 46.1576 32.8845 46.1576 40.648L46.1512 40.6416Z" fill="white"/>
<path d="M32.0431 56.2896C23.375 56.2896 16.3306 49.2706 16.3306 40.648C16.3306 32.0254 23.375 25 32.0431 25C40.7112 25 47.7556 32.019 47.7556 40.6416C47.7556 49.2642 40.7048 56.2832 32.0431 56.2832V56.2896ZM32.0431 28.1945C25.1457 28.1945 19.5332 33.7817 19.5332 40.648C19.5332 47.5142 25.1457 53.1014 32.0431 53.1014C38.9405 53.1014 44.553 47.5142 44.553 40.648C44.553 33.7817 38.9405 28.1945 32.0431 28.1945Z" fill="#699F2F"/>
<path d="M28.9685 47.1261C28.6425 47.1261 28.3101 47.0243 28.0225 46.8207C27.3065 46.2989 27.1531 45.3061 27.6709 44.5934L30.9438 40.1262V33.6672C30.9438 32.7827 31.6597 32.0699 32.5483 32.0699C33.4368 32.0699 34.1528 32.7827 34.1528 33.6672V40.648C34.1528 40.9853 34.0441 41.3162 33.8459 41.5898L30.2662 46.477C29.953 46.9034 29.4671 47.1325 28.9685 47.1325V47.1261Z" fill="#699F2F"/>
<path d="M90.2652 60.0441V71.2185H101.056C101.963 71.2185 102.532 70.2448 102.078 69.4621L98.3324 62.9395C97.3032 61.1513 95.3983 60.0504 93.3271 60.0504H90.2588L90.2652 60.0441Z" fill="#EDFBCC"/>
<path d="M101.049 72.8093H90.2588C89.3702 72.8093 88.6543 72.0966 88.6543 71.2121V60.0377C88.6543 59.1531 89.3702 58.4404 90.2588 58.4404H93.3271C95.9672 58.4404 98.4155 59.8595 99.7259 62.1377L103.472 68.6603C103.971 69.5257 103.97 70.5566 103.465 71.4221C102.96 72.2875 102.059 72.803 101.056 72.803L101.049 72.8093ZM91.8633 69.6212H100.32L96.9389 63.7285C96.1973 62.4431 94.8166 61.6413 93.3271 61.6413H91.8633V69.6212Z" fill="#699F2F"/>
<path d="M40.5643 63.2322H19.7251C18.8429 63.2322 18.1206 62.5195 18.1206 61.635C18.1206 60.7504 18.8366 60.0377 19.7251 60.0377H40.5643C41.4465 60.0377 42.1688 60.7504 42.1688 61.635C42.1688 62.5195 41.4529 63.2322 40.5643 63.2322Z" fill="#699F2F"/>
<path d="M32.5482 69.6213H10.1045C9.21595 69.6213 8.5 68.9085 8.5 68.024C8.5 67.1395 9.21595 66.4268 10.1045 66.4268H32.5482C33.4368 66.4268 34.1527 67.1395 34.1527 68.024C34.1527 68.9085 33.4368 69.6213 32.5482 69.6213Z" fill="#699F2F"/>
</g>
<defs>
<clipPath id="clip0_628_706">
<rect width="101" height="69" fill="white" transform="translate(8.5 25)"/>
</clipPath>
</defs>
</svg>
