<svg width="118" height="119" viewBox="0 0 118 119" fill="none" xmlns="http://www.w3.org/2000/svg">
<rect y="0.5" width="118" height="118" rx="10" fill="#D8F794"/>
<g clip-path="url(#clip0_628_428)">
<path d="M36.6987 26.7936H86.262V97.2432H36.6987V26.7936Z" fill="#EDFBCC"/>
<path d="M31.7378 21.757H81.3011V92.2065H31.7378V21.757Z" fill="white"/>
<path d="M35.4609 54.8794C35.4609 73.4073 50.2542 88.4358 68.5031 88.4358H81.3014V21.757H35.4609V54.8794Z" fill="#EDFBCC"/>
<path d="M39.1748 51.9496H73.8736V56.9862H39.1748V51.9496Z" fill="#EDFBCC"/>
<path d="M41.6504 51.9496V49.4358C41.6504 41.0987 48.3034 34.335 56.5238 34.335C64.7443 34.335 71.3973 41.0897 71.3973 49.4358V51.9496H41.6504Z" fill="#EFEFEF"/>
<path d="M56.5243 34.335C57.3526 34.335 58.1808 34.4163 59.0002 34.561V31.8212C59.0002 30.4286 57.8869 29.3074 56.5243 29.3074C55.1616 29.3074 54.0483 30.4377 54.0483 31.8212V34.561C54.8677 34.4163 55.696 34.344 56.5243 34.335Z" fill="#EDFBCC"/>
<path d="M56.5238 34.335C51.5363 34.335 46.8873 36.8759 44.1353 41.0897V41.6322C44.1353 45.9364 47.5731 49.4358 51.8213 49.4358H71.3973C71.3973 41.0987 64.7443 34.335 56.5238 34.335Z" fill="white"/>
<path d="M39.1748 64.5366H46.6115V72.087H39.1748V64.5366Z" fill="#EDFBCC"/>
<path d="M39.1748 77.1146H46.6115V84.6651H39.1748V77.1146Z" fill="#EDFBCC"/>
<path d="M73.8735 50.6927H72.6355V49.4358C72.6266 41.8672 67.4966 35.2934 60.2469 33.5392V31.8211C60.2469 29.7323 58.5815 28.0504 56.533 28.0504C54.4846 28.0504 52.8191 29.7413 52.8191 31.8211V33.5392C45.5694 35.2934 40.4394 41.8672 40.4305 49.4358V50.6927H39.1926C38.5068 50.6927 37.9546 51.2533 37.9546 51.9496V56.9862C37.9546 57.6825 38.5068 58.2431 39.1926 58.2431H73.8913C74.5771 58.2431 75.1293 57.6825 75.1293 56.9862V51.9496C75.1293 51.2533 74.5771 50.6927 73.8913 50.6927H73.8735ZM55.2861 31.8211C55.2861 31.1248 55.8383 30.5642 56.5241 30.5642C57.2099 30.5642 57.7621 31.1248 57.7621 31.8211V33.1413C57.3524 33.1051 56.9427 33.078 56.5241 33.078C56.1055 33.078 55.6958 33.1051 55.2861 33.1413V31.8211ZM42.8887 49.4358C42.8887 41.7949 48.9894 35.6008 56.5152 35.6008C64.041 35.6008 70.1418 41.7949 70.1418 49.4358V50.6927H42.8887V49.4358ZM72.6266 55.7293H40.4127V53.2155H72.6266V55.7293Z" fill="#699F2F"/>
<path d="M46.6112 63.2708H39.1745C38.4887 63.2708 37.9365 63.8314 37.9365 64.5276V72.0781C37.9365 72.7743 38.4887 73.335 39.1745 73.335H46.6112C47.297 73.335 47.8492 72.7743 47.8492 72.0781V64.5276C47.8492 63.8314 47.297 63.2708 46.6112 63.2708ZM45.3732 70.8212H40.4125V65.7845H45.3732V70.8212Z" fill="#699F2F"/>
<path d="M46.6112 75.8578H39.1745C38.4887 75.8578 37.9365 76.4184 37.9365 77.1147V84.6651C37.9365 85.3614 38.4887 85.922 39.1745 85.922H46.6112C47.297 85.922 47.8492 85.3614 47.8492 84.6651V77.1147C47.8492 76.4184 47.297 75.8578 46.6112 75.8578ZM45.3732 83.4082H40.4125V78.3716H45.3732V83.4082Z" fill="#699F2F"/>
<path d="M50.3252 63.8313H75.1113V66.3451H50.3252V63.8313Z" fill="#699F2F"/>
<path d="M50.3252 69.5642H75.1113V72.078H50.3252V69.5642Z" fill="#699F2F"/>
<path d="M50.3252 77.1146H75.1113V79.6284H50.3252V77.1146Z" fill="#699F2F"/>
<path d="M50.3252 82.1422H75.1113V84.656H50.3252V82.1422Z" fill="#699F2F"/>
<path d="M86.262 25.5366H82.5481V21.7569C82.5481 21.0606 81.9959 20.5 81.3102 20.5H31.738C31.0522 20.5 30.5 21.0606 30.5 21.7569V92.2065C30.5 92.9027 31.0522 93.4634 31.738 93.4634H35.4519V97.2341C35.4519 97.9303 36.0041 98.491 36.6898 98.491H86.2531C86.9389 98.491 87.4911 97.9303 87.4911 97.2341V26.7935C87.4911 26.0973 86.9389 25.5366 86.2531 25.5366H86.262ZM32.9759 23.0138H80.0633V90.9496H32.9759V23.0138ZM85.0241 95.9862H37.9367V93.4724H81.3102C81.9959 93.4724 82.5481 92.9118 82.5481 92.2155V28.0504H85.0241V95.9862Z" fill="#699F2F"/>
</g>
<defs>
<clipPath id="clip0_628_428">
<rect width="57" height="78" fill="white" transform="translate(30.5 20.5)"/>
</clipPath>
</defs>
</svg>
