<svg width="70" height="69" viewBox="0 0 70 69" fill="none" xmlns="http://www.w3.org/2000/svg">
<path d="M20.782 15.3279H23.9684V18.5359C23.9684 19.2042 24.5083 19.7478 25.1721 19.7478C30.1286 19.7478 29.6949 20.4518 29.6684 15.3279H32.8636C33.5274 15.3279 34.0673 14.7844 34.0673 14.116C34.0673 9.10805 34.7665 9.56251 29.6684 9.57142V6.36345C29.6684 5.69513 29.1285 5.15155 28.4646 5.15155C23.5081 5.15155 23.9418 4.44758 23.9684 9.57142H20.782C20.1182 9.57142 19.5783 10.115 19.5783 10.7833V14.1071C19.5783 14.7755 20.1182 15.319 20.782 15.319V15.3279ZM21.9946 12.0041H25.1809C25.8448 12.0041 26.3847 11.4606 26.3847 10.7922V7.58426H27.2609V10.7922C27.2609 11.4606 27.8008 12.0041 28.4646 12.0041H31.6598V12.9041C26.6856 12.9041 27.2786 12.3427 27.2609 17.324H26.3847C26.3847 12.316 26.9246 12.9131 21.9946 12.9041V12.0041ZM68.3027 34.0322C73.4629 28.5697 65.7183 20.6746 60.2484 25.9231L53.6633 32.5619V12.2715C53.6456 12.0932 53.6013 11.9239 53.5394 11.7635C53.4774 11.6299 53.3978 11.514 53.3004 11.4071L42.7855 0.811886C42.5465 0.615843 42.2456 0.5 41.9269 0.5H4.7087C2.12423 0.5 0.0265528 2.603 0 5.19611V63.8039C0.0265528 66.4059 2.12423 68.5 4.7087 68.5H48.9546C51.5479 68.5 53.6544 66.3792 53.6633 63.7593V48.771L68.2939 34.0233H68.3027V34.0322ZM66.6034 27.643C67.5416 28.6054 67.8159 30.04 67.2937 31.2876L65.143 29.1222L63.1781 27.2152L62.9745 27.0103C64.1959 26.4578 65.6386 26.7073 66.6034 27.643ZM61.0981 28.4895L62.5673 29.9866L45.2195 47.4254L43.7591 45.9551L61.0892 28.4895H61.0981ZM42.5819 48.2007L46.2019 51.8453L40.8206 53.6453L42.5819 48.2007ZM48.4058 50.6334L46.9189 49.1542L55.5928 40.4303L64.2667 31.6975L65.736 33.1767L48.4058 50.6245V50.6334ZM49.5299 11.0506H44.2547C43.6352 11.0506 43.1307 10.5427 43.1307 9.91895V4.59907L49.521 11.0506H49.5299ZM51.247 51.2126V63.8039C51.247 65.0782 50.2203 66.1118 48.9546 66.1118H4.7087C3.44302 66.1118 2.41631 65.0782 2.41631 63.8039V5.19611C2.43401 3.93965 3.46072 2.9238 4.7087 2.9238H40.7321V9.95459C40.7321 11.9239 42.3164 13.5101 44.2636 13.5101H51.247V34.9857L41.21 45.0908C41.0949 45.2422 40.9976 45.4026 40.9091 45.563L37.7404 55.1424C37.528 55.7751 37.8732 56.4701 38.5105 56.6751C38.7583 56.7553 39.0238 56.7553 39.2716 56.6751C39.2716 56.6751 48.8041 53.4938 48.813 53.4671C49.2024 53.4315 50.946 51.4978 51.247 51.2126ZM9.41741 25.237C9.41741 24.5687 9.95731 24.0251 10.6211 24.0251H43.0067C43.6706 24.0251 44.2105 24.5687 44.2105 25.237C44.2105 25.9053 43.6706 26.4489 43.0067 26.4489H10.63C9.96617 26.4489 9.42626 25.9053 9.42626 25.237H9.41741ZM9.41741 31.9559C9.41741 31.2876 9.95731 30.744 10.6211 30.744H43.0067C43.6706 30.744 44.2105 31.2876 44.2105 31.9559C44.2105 32.6242 43.6706 33.1678 43.0067 33.1678H10.63C9.96617 33.1678 9.42626 32.6242 9.42626 31.9559H9.41741ZM9.41741 38.657C9.41741 37.9887 9.95731 37.4451 10.6211 37.4451H36.1827C36.8465 37.4451 37.3864 37.9887 37.3864 38.657C37.3864 39.3253 36.8465 39.8689 36.1827 39.8689H10.63C9.96617 39.8689 9.42626 39.3253 9.42626 38.657H9.41741ZM9.41741 45.367C9.41741 44.6987 9.95731 44.1551 10.6211 44.1551H36.1827C36.8465 44.1551 37.3864 44.6987 37.3864 45.367C37.3864 46.0353 36.8465 46.5789 36.1827 46.5789H10.63C9.96617 46.5789 9.42626 46.0353 9.42626 45.367H9.41741ZM9.41741 52.0681C9.41741 51.3998 9.95731 50.8562 10.6211 50.8562H20.4988C21.1626 50.8562 21.7025 51.3998 21.7025 52.0681C21.7025 52.7364 21.1626 53.28 20.4988 53.28H10.6211C9.95731 53.28 9.41741 52.7364 9.41741 52.0681ZM21.7114 58.7959C21.7114 59.4642 21.1715 60.0078 20.5076 60.0078H10.63C9.96617 60.0078 9.42626 59.4642 9.42626 58.7959C9.42626 58.1276 9.96617 57.584 10.63 57.584H20.5076C21.1715 57.584 21.7114 58.1276 21.7114 58.7959ZM38.9707 59.2415C38.599 60.0078 37.4838 60.088 37.4484 59.0632C37.413 58.0385 36.0765 57.3256 35.3861 58.2167C35.032 58.6533 34.2532 59.8652 33.5362 59.5622C32.8193 59.2593 32.8459 58.2791 32.7397 57.78C32.5626 57.1295 31.8988 56.7464 31.2615 56.9246C30.9518 57.0048 30.6951 57.2097 30.5358 57.486C30.1817 58.2256 29.5976 59.8028 28.5443 59.7583C26.9777 59.4553 29.0665 58.3771 29.4028 57.682C30.8544 55.8731 33.0229 52.8255 31.8192 50.3928C31.173 49.1453 29.7038 48.575 28.3938 49.0829C25.2341 50.5799 24.4994 55.3117 25.0393 58.5197C24.2162 59.1256 23.3134 59.6335 22.3575 60.0167C21.7114 60.1949 21.3396 60.8722 21.5167 61.5138C21.6937 62.1554 22.3663 62.5385 23.0036 62.3603C24.0303 61.9237 25.0128 61.389 25.9333 60.7563C26.6945 61.8969 28.1018 62.4138 29.4205 62.0395C30.1729 61.8078 30.8455 61.3623 31.35 60.7563C31.7041 61.291 32.2263 61.6831 32.837 61.888C33.8726 62.1999 35.0055 61.9504 35.8198 61.2286C36.2446 61.7365 36.8111 62.093 37.4484 62.2445C38.9088 62.5653 40.4046 61.8435 41.0684 60.4979C41.7057 59.0632 39.6168 57.8424 38.9442 59.2325H38.9707V59.2415ZM29.3232 51.3106C30.4207 51.07 29.4471 53.1552 29.2612 53.5295C28.1991 55.4988 26.6768 58.083 27.7212 53.9394C27.8539 53.173 28.3496 51.4978 29.2524 51.2928H29.3232V51.3106Z" fill="#699F2F"/>
</svg>
